<svg width="249.99999999999997" height="209.99999999999997" xmlns="http://www.w3.org/2000/svg" aria-hidden="true" role="img" preserveAspectRatio="xMidYMid meet">
 <title>vgfdf</title>

 <g>
  <title>Layer 1</title>
  <path stroke-width="4" stroke="currentColor" fill="none" d="m113.20389,20.81069a14.42892,13.24398 0 0 1 14.01048,0l50.50122,25.74629a14.42892,13.24398 0 0 1 7.42368,11.58186l0,50.63173a14.42892,13.24398 0 0 1 -7.42368,11.57524l-50.50122,25.75954a14.42892,13.24398 0 0 1 -14.01048,0l-50.50122,-25.75954a14.42892,13.24398 0 0 1 -7.42368,-11.56861l0,-50.63835a14.42892,13.24398 0 0 1 7.42368,-11.58186l50.50122,-25.74629z" id="svg_1"/>
  <path d="m-16.64063,0.996l0.56913,0l0.17587,-0.54067l0.17587,0.54067l0.56913,0l-0.46044,0.33415l0.17588,0.54067l-0.46044,-0.33416l-0.46044,0.33416l0.17588,-0.54067l-0.46044,-0.33415z" id="svg_2"/>
  <g stroke="null" id="svg_3" transform="translate(0 500) scale(0.1 -0.1)" fill="#000000">
   <path stroke="null" id="svg_10" d="m655.52532,4157.57764c0,-213.31883 1.43352,-245.27949 10.75139,-245.27949c5.73408,0 10.75139,-5.2029 10.75139,-11.14907c0,-10.4058 24.36982,-11.89234 207.14346,-9.66253l207.14346,2.22981l19.3525,18.58178c31.53741,29.73085 39.42177,58.71842 39.42177,144.93788l0,78.04347l57.34075,0l57.34075,0l0,-81.01656c0,-92.16563 5.73408,-104.80124 63.79158,-142.70807l32.25417,-21.55486l199.25911,0l199.25911,0l0,48.31263c0,37.90683 -2.15028,48.31263 -10.75139,48.31263c-5.73408,0 -10.75139,5.2029 -10.75139,11.14907c0,8.91925 -26.5201,11.14907 -177.03957,12.63561l-177.75633,2.22981l-2.15028,61.69151l-2.15028,60.94824l43.00556,0l43.00556,0l2.15028,-23.78468l2.15028,-24.52795l67.37538,-2.22981c49.4564,-1.48654 69.52566,0.74327 73.82622,7.43271c9.31787,15.60869 7.16759,127.84264 -2.86704,138.24844c-11.46815,11.89234 -121.84909,11.89234 -133.31724,0c-5.01732,-5.2029 -8.60111,-18.58178 -8.60111,-29.73085c0,-20.81159 -0.71676,-20.81159 -43.00556,-20.81159l-43.72232,0l2.15028,50.54244l2.15028,49.79917l188.50772,2.22981l187.79096,1.48654l0,44.59627c0,32.70393 -2.86704,44.59627 -10.03463,44.59627c-5.01732,0 -11.46815,6.68944 -13.61843,14.86542c-3.5838,14.12215 -10.03463,14.86542 -198.54235,14.86542c-167.00494,0 -198.54235,-1.48654 -220.04513,-12.63561c-42.2888,-20.81159 -52.32343,-46.08281 -52.32343,-133.78881l0,-76.55693l-57.34075,0l-57.34075,0l0,55.00207c0,65.40786 -7.16759,88.44927 -37.98825,122.63974c-40.13853,43.853 -49.4564,45.33954 -263.05069,45.33954l-193.52503,0l0,-245.27949zm372.71488,74.32712l0,-52.02898l-35.83797,0c-34.40445,0 -35.83797,0.74327 -35.83797,20.81159c0,11.14907 -3.5838,24.52795 -8.60111,29.73085c-12.90167,13.37888 -123.28261,11.89234 -134.034,-1.48654c-5.73408,-6.68944 -7.88435,-34.19047 -6.45083,-76.55693l2.15028,-65.40786l71.67594,0l71.67594,0l2.15028,24.52795c2.15028,23.04141 2.86704,23.78468 37.98825,23.78468l35.12121,0l0,-63.17805l0,-63.17805l-126.86641,1.48654l-127.58317,2.22981l-2.15028,126.3561c-0.71676,69.12422 0,130.07246 1.43352,135.27535c2.86704,7.43271 33.68769,9.66253 129.73345,9.66253l125.43289,0l0,-52.02898z"/>
  </g>
 </g>
</svg>