<?xml version="1.0" encoding="UTF-8"?>
<svg  version="1.1" viewBox="0 0 700 700" xmlns="http://www.w3.org/2000/svg" xmlns:xlink="http://www.w3.org/1999/xlink">
  <path d="m259 492.1c-26.602 0-49-21-49-46.898v-252c0-25.898 21.699-46.898 48.301-46.898 7.6992 0 15.398 2.1016 22.398 5.6016l240.1 126c15.398 8.3984 24.5 23.102 24.5 40.602s-9.8008 33.602-25.199 42l-239.4 126c-6.3047 3.4922-14.004 5.5938-21.703 5.5938zm-0.69922-331.8c-16.801 0-34.301 13.301-34.301 32.898v252c0 19.602 18.199 32.898 35 32.898 5.6016 0 10.5-1.3984 15.398-4.1992l239.4-126c11.199-5.6016 17.5-16.801 17.5-29.398 0-11.898-6.3008-23.102-16.801-28.699l-240.1-126c-4.8945-2.1016-10.496-3.5-16.094-3.5z"/>
  <path d="m350 378c-15.398 0-29.398-6.3008-39.898-16.801l9.8008-9.8008c7.6992 8.3984 18.898 12.602 30.102 12.602 23.102 0 42-18.898 42-42s-18.898-42-42-42c-23.102 0-42 18.898-42 42h-14c0-30.801 25.199-56 56-56 30.801 0 56 25.199 56 56-0.003906 30.801-25.203 56-56.004 56z"/>
  <path d="m301 338.8-32.898-32.902 9.7969-9.7969 23.102 23.098 23.102-23.098 9.7969 9.7969z"/>
  <path d="m371 329h-28v-28h14v14h14z"/>
</svg>
